<mxfile host="app.diagrams.net" agent="Mozilla/5.0 (X11; Linux x86_64) AppleWebKit/537.36 (KHTML, like Gecko) Chrome/127.0.0.0 Safari/537.36" version="27.1.1">
  <diagram name="PÃ¡gina-1" id="qLhGqvPwLYVuyUsYQEqM">
    <mxGraphModel dx="1426" dy="740" grid="1" gridSize="10" guides="1" tooltips="1" connect="1" arrows="1" fold="1" page="1" pageScale="1" pageWidth="827" pageHeight="1169" math="0" shadow="0">
      <root>
        <mxCell id="0" />
        <mxCell id="1" parent="0" />
        <mxCell id="7AulNM0p3LBbkpASS_B2-8" style="edgeStyle=orthogonalEdgeStyle;rounded=0;orthogonalLoop=1;jettySize=auto;html=1;entryX=-0.005;entryY=0.934;entryDx=0;entryDy=0;endArrow=open;endFill=0;entryPerimeter=0;" edge="1" parent="1" source="Bx_vuLSl6Neh22hOfVel-3" target="7AulNM0p3LBbkpASS_B2-17">
          <mxGeometry relative="1" as="geometry">
            <mxPoint x="214" y="70" as="targetPoint" />
          </mxGeometry>
        </mxCell>
        <mxCell id="Bx_vuLSl6Neh22hOfVel-3" value="Client&lt;br&gt;(Admin)" style="rounded=0;whiteSpace=wrap;html=1;" parent="1" vertex="1">
          <mxGeometry x="34" y="40" width="120" height="60" as="geometry" />
        </mxCell>
        <mxCell id="7AulNM0p3LBbkpASS_B2-1" style="edgeStyle=orthogonalEdgeStyle;rounded=0;orthogonalLoop=1;jettySize=auto;html=1;entryX=0.5;entryY=0;entryDx=0;entryDy=0;endArrow=none;startFill=0;startArrow=block;dashed=1;" edge="1" parent="1" source="Bx_vuLSl6Neh22hOfVel-9" target="Bx_vuLSl6Neh22hOfVel-15">
          <mxGeometry relative="1" as="geometry">
            <Array as="points">
              <mxPoint x="499" y="200" />
              <mxPoint x="709" y="200" />
            </Array>
          </mxGeometry>
        </mxCell>
        <mxCell id="7AulNM0p3LBbkpASS_B2-2" style="edgeStyle=orthogonalEdgeStyle;rounded=0;orthogonalLoop=1;jettySize=auto;html=1;endArrow=none;startFill=0;startArrow=block;dashed=1;entryX=0.5;entryY=0;entryDx=0;entryDy=0;" edge="1" parent="1" source="Bx_vuLSl6Neh22hOfVel-9" target="Bx_vuLSl6Neh22hOfVel-11">
          <mxGeometry relative="1" as="geometry">
            <mxPoint x="294" y="180" as="targetPoint" />
            <Array as="points">
              <mxPoint x="499" y="200" />
              <mxPoint x="289" y="200" />
            </Array>
          </mxGeometry>
        </mxCell>
        <mxCell id="7AulNM0p3LBbkpASS_B2-3" style="edgeStyle=orthogonalEdgeStyle;rounded=0;orthogonalLoop=1;jettySize=auto;html=1;endArrow=none;startFill=0;startArrow=block;dashed=1;" edge="1" parent="1" source="Bx_vuLSl6Neh22hOfVel-9" target="Bx_vuLSl6Neh22hOfVel-13">
          <mxGeometry relative="1" as="geometry" />
        </mxCell>
        <mxCell id="Bx_vuLSl6Neh22hOfVel-9" value="&amp;lt;&amp;lt;Interface&amp;gt;&amp;gt;&lt;br&gt;ReportStrategy" style="swimlane;fontStyle=0;childLayout=stackLayout;horizontal=1;startSize=40;fillColor=none;horizontalStack=0;resizeParent=1;resizeParentMax=0;resizeLast=0;collapsible=1;marginBottom=0;whiteSpace=wrap;html=1;" parent="1" vertex="1">
          <mxGeometry x="429" y="30" width="140" height="80" as="geometry">
            <mxRectangle x="240" y="250" width="80" height="30" as="alternateBounds" />
          </mxGeometry>
        </mxCell>
        <mxCell id="Bx_vuLSl6Neh22hOfVel-10" value="+ handleReport(report: Report):&amp;nbsp;" style="text;strokeColor=none;fillColor=none;align=left;verticalAlign=top;spacingLeft=4;spacingRight=4;overflow=hidden;rotatable=0;points=[[0,0.5],[1,0.5]];portConstraint=eastwest;whiteSpace=wrap;html=1;" parent="Bx_vuLSl6Neh22hOfVel-9" vertex="1">
          <mxGeometry y="40" width="140" height="40" as="geometry" />
        </mxCell>
        <mxCell id="Bx_vuLSl6Neh22hOfVel-11" value="SpamReportStrategy" style="swimlane;fontStyle=0;childLayout=stackLayout;horizontal=1;startSize=26;fillColor=none;horizontalStack=0;resizeParent=1;resizeParentMax=0;resizeLast=0;collapsible=1;marginBottom=0;whiteSpace=wrap;html=1;" parent="1" vertex="1">
          <mxGeometry x="204" y="240" width="170" height="70" as="geometry">
            <mxRectangle x="240" y="250" width="80" height="30" as="alternateBounds" />
          </mxGeometry>
        </mxCell>
        <mxCell id="Bx_vuLSl6Neh22hOfVel-12" value="+ handleReport(report: Report):&amp;nbsp;" style="text;strokeColor=none;fillColor=none;align=left;verticalAlign=top;spacingLeft=4;spacingRight=4;overflow=hidden;rotatable=0;points=[[0,0.5],[1,0.5]];portConstraint=eastwest;whiteSpace=wrap;html=1;" parent="Bx_vuLSl6Neh22hOfVel-11" vertex="1">
          <mxGeometry y="26" width="170" height="44" as="geometry" />
        </mxCell>
        <mxCell id="Bx_vuLSl6Neh22hOfVel-13" value="CopyrightInfringementStrategy" style="swimlane;fontStyle=0;childLayout=stackLayout;horizontal=1;startSize=26;fillColor=none;horizontalStack=0;resizeParent=1;resizeParentMax=0;resizeLast=0;collapsible=1;marginBottom=0;whiteSpace=wrap;html=1;" parent="1" vertex="1">
          <mxGeometry x="414" y="240" width="170" height="70" as="geometry">
            <mxRectangle x="240" y="250" width="80" height="30" as="alternateBounds" />
          </mxGeometry>
        </mxCell>
        <mxCell id="Bx_vuLSl6Neh22hOfVel-14" value="+ handleReport(report: Report):&amp;nbsp;" style="text;strokeColor=none;fillColor=none;align=left;verticalAlign=top;spacingLeft=4;spacingRight=4;overflow=hidden;rotatable=0;points=[[0,0.5],[1,0.5]];portConstraint=eastwest;whiteSpace=wrap;html=1;" parent="Bx_vuLSl6Neh22hOfVel-13" vertex="1">
          <mxGeometry y="26" width="170" height="44" as="geometry" />
        </mxCell>
        <mxCell id="Bx_vuLSl6Neh22hOfVel-15" value="InappropriateContentStrategy" style="swimlane;fontStyle=0;childLayout=stackLayout;horizontal=1;startSize=26;fillColor=none;horizontalStack=0;resizeParent=1;resizeParentMax=0;resizeLast=0;collapsible=1;marginBottom=0;whiteSpace=wrap;html=1;" parent="1" vertex="1">
          <mxGeometry x="624" y="240" width="170" height="70" as="geometry">
            <mxRectangle x="240" y="250" width="80" height="30" as="alternateBounds" />
          </mxGeometry>
        </mxCell>
        <mxCell id="Bx_vuLSl6Neh22hOfVel-16" value="+ handleReport(report: Report):&amp;nbsp;" style="text;strokeColor=none;fillColor=none;align=left;verticalAlign=top;spacingLeft=4;spacingRight=4;overflow=hidden;rotatable=0;points=[[0,0.5],[1,0.5]];portConstraint=eastwest;whiteSpace=wrap;html=1;" parent="Bx_vuLSl6Neh22hOfVel-15" vertex="1">
          <mxGeometry y="26" width="170" height="44" as="geometry" />
        </mxCell>
        <mxCell id="7AulNM0p3LBbkpASS_B2-16" value="ReportContext" style="swimlane;fontStyle=1;align=center;verticalAlign=top;childLayout=stackLayout;horizontal=1;startSize=26;horizontalStack=0;resizeParent=1;resizeParentMax=0;resizeLast=0;collapsible=1;marginBottom=0;whiteSpace=wrap;html=1;" vertex="1" parent="1">
          <mxGeometry x="214" y="20" width="160" height="100" as="geometry" />
        </mxCell>
        <mxCell id="7AulNM0p3LBbkpASS_B2-17" value="- strategy" style="text;strokeColor=none;fillColor=none;align=left;verticalAlign=top;spacingLeft=4;spacingRight=4;overflow=hidden;rotatable=0;points=[[0,0.5],[1,0.5]];portConstraint=eastwest;whiteSpace=wrap;html=1;" vertex="1" parent="7AulNM0p3LBbkpASS_B2-16">
          <mxGeometry y="26" width="160" height="26" as="geometry" />
        </mxCell>
        <mxCell id="7AulNM0p3LBbkpASS_B2-18" value="" style="line;strokeWidth=1;fillColor=none;align=left;verticalAlign=middle;spacingTop=-1;spacingLeft=3;spacingRight=3;rotatable=0;labelPosition=right;points=[];portConstraint=eastwest;strokeColor=inherit;" vertex="1" parent="7AulNM0p3LBbkpASS_B2-16">
          <mxGeometry y="52" width="160" height="8" as="geometry" />
        </mxCell>
        <mxCell id="7AulNM0p3LBbkpASS_B2-19" value="+ executeReport(report: Report)" style="text;strokeColor=none;fillColor=none;align=left;verticalAlign=top;spacingLeft=4;spacingRight=4;overflow=hidden;rotatable=0;points=[[0,0.5],[1,0.5]];portConstraint=eastwest;whiteSpace=wrap;html=1;" vertex="1" parent="7AulNM0p3LBbkpASS_B2-16">
          <mxGeometry y="60" width="160" height="40" as="geometry" />
        </mxCell>
        <mxCell id="7AulNM0p3LBbkpASS_B2-21" style="edgeStyle=orthogonalEdgeStyle;rounded=0;orthogonalLoop=1;jettySize=auto;html=1;entryX=-0.002;entryY=-0.042;entryDx=0;entryDy=0;entryPerimeter=0;endArrow=open;endFill=0;startArrow=diamond;startFill=0;" edge="1" parent="1" source="7AulNM0p3LBbkpASS_B2-16" target="Bx_vuLSl6Neh22hOfVel-10">
          <mxGeometry relative="1" as="geometry">
            <Array as="points">
              <mxPoint x="402" y="68" />
            </Array>
          </mxGeometry>
        </mxCell>
      </root>
    </mxGraphModel>
  </diagram>
</mxfile>
